<mxfile host="app.diagrams.net" modified="2023-11-14T14:53:00.866Z" agent="Mozilla/5.0 (Windows NT 10.0; Win64; x64) AppleWebKit/537.36 (KHTML, like Gecko) Chrome/119.0.0.0 Safari/537.36 Edg/119.0.0.0" etag="_pbu59LQ_zg53B7Z9iht" version="22.1.0" type="device" pages="2">
  <diagram name="list_project_teacher" id="2YBvvXClWsGukQMizWep">
    <mxGraphModel dx="2559" dy="780" grid="1" gridSize="10" guides="1" tooltips="1" connect="1" arrows="1" fold="1" page="1" pageScale="1" pageWidth="850" pageHeight="1100" math="0" shadow="0">
      <root>
        <mxCell id="0" />
        <mxCell id="1" parent="0" />
        <mxCell id="zk_h0Scq-M_etuKPo7Ku-59" value="View" style="shape=umlLifeline;perimeter=lifelinePerimeter;container=1;collapsible=0;recursiveResize=0;rounded=0;shadow=0;strokeWidth=1;" parent="1" vertex="1">
          <mxGeometry x="150" y="100" width="100" height="660" as="geometry" />
        </mxCell>
        <mxCell id="zk_h0Scq-M_etuKPo7Ku-60" value="" style="html=1;points=[];perimeter=orthogonalPerimeter;" parent="zk_h0Scq-M_etuKPo7Ku-59" vertex="1">
          <mxGeometry x="45" y="75" width="10" height="475" as="geometry" />
        </mxCell>
        <mxCell id="zk_h0Scq-M_etuKPo7Ku-61" value=":ProjectController" style="shape=umlLifeline;perimeter=lifelinePerimeter;container=1;collapsible=0;recursiveResize=0;rounded=0;shadow=0;strokeWidth=1;" parent="1" vertex="1">
          <mxGeometry x="280" y="100" width="160" height="660" as="geometry" />
        </mxCell>
        <mxCell id="zk_h0Scq-M_etuKPo7Ku-62" value="" style="html=1;points=[];perimeter=orthogonalPerimeter;" parent="zk_h0Scq-M_etuKPo7Ku-61" vertex="1">
          <mxGeometry x="78" y="100" width="10" height="410" as="geometry" />
        </mxCell>
        <mxCell id="zk_h0Scq-M_etuKPo7Ku-63" value="8.Return result" style="html=1;verticalAlign=bottom;endArrow=open;dashed=1;endSize=8;exitX=-0.082;exitY=0.569;exitDx=0;exitDy=0;exitPerimeter=0;" parent="zk_h0Scq-M_etuKPo7Ku-61" edge="1">
          <mxGeometry relative="1" as="geometry">
            <mxPoint x="261" y="450" as="sourcePoint" />
            <mxPoint x="88" y="450" as="targetPoint" />
          </mxGeometry>
        </mxCell>
        <mxCell id="zk_h0Scq-M_etuKPo7Ku-64" value=":ProjectService" style="shape=umlLifeline;perimeter=lifelinePerimeter;container=1;collapsible=0;recursiveResize=0;rounded=0;shadow=0;strokeWidth=1;" parent="1" vertex="1">
          <mxGeometry x="460" y="100" width="150" height="660" as="geometry" />
        </mxCell>
        <mxCell id="zk_h0Scq-M_etuKPo7Ku-65" value="" style="html=1;points=[];perimeter=orthogonalPerimeter;" parent="zk_h0Scq-M_etuKPo7Ku-64" vertex="1">
          <mxGeometry x="78" y="120" width="10" height="390" as="geometry" />
        </mxCell>
        <mxCell id="zk_h0Scq-M_etuKPo7Ku-66" value=":ProjectRepository" style="shape=umlLifeline;perimeter=lifelinePerimeter;container=1;collapsible=0;recursiveResize=0;rounded=0;shadow=0;strokeWidth=1;" parent="1" vertex="1">
          <mxGeometry x="640" y="100" width="160" height="660" as="geometry" />
        </mxCell>
        <mxCell id="zk_h0Scq-M_etuKPo7Ku-67" value="" style="html=1;points=[];perimeter=orthogonalPerimeter;" parent="zk_h0Scq-M_etuKPo7Ku-66" vertex="1">
          <mxGeometry x="83" y="150" width="10" height="300" as="geometry" />
        </mxCell>
        <mxCell id="zk_h0Scq-M_etuKPo7Ku-68" value="5.executeQuery()" style="html=1;verticalAlign=bottom;endArrow=block;entryX=0.45;entryY=0.493;entryDx=0;entryDy=0;entryPerimeter=0;exitX=1.236;exitY=0.285;exitDx=0;exitDy=0;exitPerimeter=0;" parent="zk_h0Scq-M_etuKPo7Ku-66" edge="1">
          <mxGeometry width="80" relative="1" as="geometry">
            <mxPoint x="93" y="210" as="sourcePoint" />
            <mxPoint x="253" y="210.45000000000005" as="targetPoint" />
          </mxGeometry>
        </mxCell>
        <mxCell id="zk_h0Scq-M_etuKPo7Ku-69" value="7.Return result" style="html=1;verticalAlign=bottom;endArrow=open;dashed=1;endSize=8;exitX=0.471;exitY=0.635;exitDx=0;exitDy=0;exitPerimeter=0;" parent="zk_h0Scq-M_etuKPo7Ku-66" edge="1">
          <mxGeometry relative="1" as="geometry">
            <mxPoint x="83.36000000000013" y="419.0999999999999" as="sourcePoint" />
            <mxPoint x="-92" y="420" as="targetPoint" />
          </mxGeometry>
        </mxCell>
        <mxCell id="zk_h0Scq-M_etuKPo7Ku-70" value="6.Return result" style="html=1;verticalAlign=bottom;endArrow=open;dashed=1;endSize=8;" parent="zk_h0Scq-M_etuKPo7Ku-66" edge="1">
          <mxGeometry relative="1" as="geometry">
            <mxPoint x="257.5" y="390" as="sourcePoint" />
            <mxPoint x="83" y="390" as="targetPoint" />
            <Array as="points">
              <mxPoint x="213.5" y="390" />
            </Array>
          </mxGeometry>
        </mxCell>
        <mxCell id="zk_h0Scq-M_etuKPo7Ku-71" value="Database" style="shape=umlLifeline;perimeter=lifelinePerimeter;container=1;collapsible=0;recursiveResize=0;rounded=0;shadow=0;strokeWidth=1;" parent="1" vertex="1">
          <mxGeometry x="840" y="100" width="100" height="650" as="geometry" />
        </mxCell>
        <mxCell id="zk_h0Scq-M_etuKPo7Ku-72" value="" style="html=1;points=[];perimeter=orthogonalPerimeter;" parent="zk_h0Scq-M_etuKPo7Ku-71" vertex="1">
          <mxGeometry x="53" y="190" width="10" height="230" as="geometry" />
        </mxCell>
        <mxCell id="zk_h0Scq-M_etuKPo7Ku-73" value="1.Select &quot;Danh sách đề tài&quot;" style="html=1;verticalAlign=bottom;endArrow=block;entryX=0.043;entryY=0.034;entryDx=0;entryDy=0;entryPerimeter=0;" parent="1" source="zk_h0Scq-M_etuKPo7Ku-74" target="zk_h0Scq-M_etuKPo7Ku-60" edge="1">
          <mxGeometry x="-0.0305" y="8" width="80" relative="1" as="geometry">
            <mxPoint x="70" y="190" as="sourcePoint" />
            <mxPoint x="190" y="190" as="targetPoint" />
            <mxPoint as="offset" />
          </mxGeometry>
        </mxCell>
        <mxCell id="zk_h0Scq-M_etuKPo7Ku-74" value="" style="shape=umlLifeline;perimeter=lifelinePerimeter;whiteSpace=wrap;html=1;container=1;dropTarget=0;collapsible=0;recursiveResize=0;outlineConnect=0;portConstraint=eastwest;newEdgeStyle={&quot;curved&quot;:0,&quot;rounded&quot;:0};participant=umlActor;" parent="1" vertex="1">
          <mxGeometry y="80" width="20" height="670" as="geometry" />
        </mxCell>
        <mxCell id="zk_h0Scq-M_etuKPo7Ku-75" value="Teacher" style="text;html=1;align=center;verticalAlign=middle;resizable=0;points=[];autosize=1;strokeColor=none;fillColor=none;" parent="1" vertex="1">
          <mxGeometry x="-25" y="120" width="70" height="30" as="geometry" />
        </mxCell>
        <mxCell id="zk_h0Scq-M_etuKPo7Ku-76" value="2.findAllProject()" style="html=1;verticalAlign=bottom;endArrow=block;entryX=0.18;entryY=0.098;entryDx=0;entryDy=0;entryPerimeter=0;" parent="1" source="zk_h0Scq-M_etuKPo7Ku-60" target="zk_h0Scq-M_etuKPo7Ku-62" edge="1">
          <mxGeometry width="80" relative="1" as="geometry">
            <mxPoint x="220" y="312" as="sourcePoint" />
            <mxPoint x="370" y="356" as="targetPoint" />
          </mxGeometry>
        </mxCell>
        <mxCell id="zk_h0Scq-M_etuKPo7Ku-77" value="3.findAllProject()" style="html=1;verticalAlign=bottom;endArrow=block;exitX=1.236;exitY=0.183;exitDx=0;exitDy=0;exitPerimeter=0;entryX=-0.02;entryY=0.142;entryDx=0;entryDy=0;entryPerimeter=0;" parent="1" source="zk_h0Scq-M_etuKPo7Ku-62" target="zk_h0Scq-M_etuKPo7Ku-65" edge="1">
          <mxGeometry width="80" relative="1" as="geometry">
            <mxPoint x="428" y="340" as="sourcePoint" />
            <mxPoint x="538" y="340" as="targetPoint" />
          </mxGeometry>
        </mxCell>
        <mxCell id="zk_h0Scq-M_etuKPo7Ku-78" value="4.findAllProject()" style="html=1;verticalAlign=bottom;endArrow=block;exitX=1.18;exitY=0.189;exitDx=0;exitDy=0;exitPerimeter=0;" parent="1" source="zk_h0Scq-M_etuKPo7Ku-65" target="zk_h0Scq-M_etuKPo7Ku-67" edge="1">
          <mxGeometry width="80" relative="1" as="geometry">
            <mxPoint x="558" y="380" as="sourcePoint" />
            <mxPoint x="718" y="380" as="targetPoint" />
          </mxGeometry>
        </mxCell>
        <mxCell id="zk_h0Scq-M_etuKPo7Ku-79" value="10.Display Project List" style="html=1;verticalAlign=bottom;endArrow=open;dashed=1;endSize=8;exitX=-0.011;exitY=0.947;exitDx=0;exitDy=0;exitPerimeter=0;" parent="1" source="zk_h0Scq-M_etuKPo7Ku-60" target="zk_h0Scq-M_etuKPo7Ku-74" edge="1">
          <mxGeometry relative="1" as="geometry">
            <mxPoint x="190" y="610" as="sourcePoint" />
            <mxPoint x="-78" y="611" as="targetPoint" />
          </mxGeometry>
        </mxCell>
        <mxCell id="zk_h0Scq-M_etuKPo7Ku-80" value="9.Return result" style="html=1;verticalAlign=bottom;endArrow=open;dashed=1;endSize=8;entryX=0.525;entryY=0.732;entryDx=0;entryDy=0;entryPerimeter=0;exitX=0.06;exitY=0.935;exitDx=0;exitDy=0;exitPerimeter=0;" parent="1" source="zk_h0Scq-M_etuKPo7Ku-62" target="zk_h0Scq-M_etuKPo7Ku-59" edge="1">
          <mxGeometry relative="1" as="geometry">
            <mxPoint x="340" y="583" as="sourcePoint" />
            <mxPoint x="210" y="583" as="targetPoint" />
          </mxGeometry>
        </mxCell>
        <mxCell id="zk_h0Scq-M_etuKPo7Ku-81" value="View" style="shape=umlLifeline;perimeter=lifelinePerimeter;container=1;collapsible=0;recursiveResize=0;rounded=0;shadow=0;strokeWidth=1;" parent="1" vertex="1">
          <mxGeometry x="185" y="1160" width="100" height="660" as="geometry" />
        </mxCell>
        <mxCell id="zk_h0Scq-M_etuKPo7Ku-82" value="" style="html=1;points=[];perimeter=orthogonalPerimeter;" parent="zk_h0Scq-M_etuKPo7Ku-81" vertex="1">
          <mxGeometry x="45" y="75" width="10" height="525" as="geometry" />
        </mxCell>
        <mxCell id="zk_h0Scq-M_etuKPo7Ku-83" value="[Title found]" style="text;html=1;strokeColor=none;fillColor=none;align=center;verticalAlign=middle;whiteSpace=wrap;rounded=0;fontSize=16;" parent="zk_h0Scq-M_etuKPo7Ku-81" vertex="1">
          <mxGeometry x="-140" y="410" width="180" height="30" as="geometry" />
        </mxCell>
        <mxCell id="zk_h0Scq-M_etuKPo7Ku-84" value=":ProjectController" style="shape=umlLifeline;perimeter=lifelinePerimeter;container=1;collapsible=0;recursiveResize=0;rounded=0;shadow=0;strokeWidth=1;" parent="1" vertex="1">
          <mxGeometry x="345" y="1160" width="160" height="660" as="geometry" />
        </mxCell>
        <mxCell id="zk_h0Scq-M_etuKPo7Ku-85" value="" style="html=1;points=[];perimeter=orthogonalPerimeter;" parent="zk_h0Scq-M_etuKPo7Ku-84" vertex="1">
          <mxGeometry x="75" y="100" width="10" height="450" as="geometry" />
        </mxCell>
        <mxCell id="zk_h0Scq-M_etuKPo7Ku-86" value="8.Return result" style="html=1;verticalAlign=bottom;endArrow=open;dashed=1;endSize=8;exitX=-0.082;exitY=0.569;exitDx=0;exitDy=0;exitPerimeter=0;" parent="zk_h0Scq-M_etuKPo7Ku-84" edge="1">
          <mxGeometry relative="1" as="geometry">
            <mxPoint x="253" y="483" as="sourcePoint" />
            <mxPoint x="80" y="483" as="targetPoint" />
          </mxGeometry>
        </mxCell>
        <mxCell id="zk_h0Scq-M_etuKPo7Ku-87" value=":ProjectService" style="shape=umlLifeline;perimeter=lifelinePerimeter;container=1;collapsible=0;recursiveResize=0;rounded=0;shadow=0;strokeWidth=1;" parent="1" vertex="1">
          <mxGeometry x="525" y="1160" width="150" height="660" as="geometry" />
        </mxCell>
        <mxCell id="zk_h0Scq-M_etuKPo7Ku-88" value="" style="html=1;points=[];perimeter=orthogonalPerimeter;" parent="zk_h0Scq-M_etuKPo7Ku-87" vertex="1">
          <mxGeometry x="70" y="120" width="10" height="400" as="geometry" />
        </mxCell>
        <mxCell id="zk_h0Scq-M_etuKPo7Ku-89" value=":ProjectRepository" style="shape=umlLifeline;perimeter=lifelinePerimeter;container=1;collapsible=0;recursiveResize=0;rounded=0;shadow=0;strokeWidth=1;" parent="1" vertex="1">
          <mxGeometry x="705" y="1160" width="160" height="660" as="geometry" />
        </mxCell>
        <mxCell id="zk_h0Scq-M_etuKPo7Ku-90" value="" style="html=1;points=[];perimeter=orthogonalPerimeter;" parent="zk_h0Scq-M_etuKPo7Ku-89" vertex="1">
          <mxGeometry x="75" y="150" width="10" height="340" as="geometry" />
        </mxCell>
        <mxCell id="zk_h0Scq-M_etuKPo7Ku-91" value="6.executeQuery()" style="html=1;verticalAlign=bottom;endArrow=block;entryX=0.45;entryY=0.493;entryDx=0;entryDy=0;entryPerimeter=0;exitX=1.236;exitY=0.285;exitDx=0;exitDy=0;exitPerimeter=0;" parent="zk_h0Scq-M_etuKPo7Ku-89" edge="1">
          <mxGeometry width="80" relative="1" as="geometry">
            <mxPoint x="85" y="263" as="sourcePoint" />
            <mxPoint x="245" y="263.45000000000005" as="targetPoint" />
          </mxGeometry>
        </mxCell>
        <mxCell id="zk_h0Scq-M_etuKPo7Ku-92" value="7.Return result" style="html=1;verticalAlign=bottom;endArrow=open;dashed=1;endSize=8;exitX=0.471;exitY=0.635;exitDx=0;exitDy=0;exitPerimeter=0;" parent="zk_h0Scq-M_etuKPo7Ku-89" edge="1">
          <mxGeometry relative="1" as="geometry">
            <mxPoint x="75.36000000000013" y="457.0999999999999" as="sourcePoint" />
            <mxPoint x="-100" y="458" as="targetPoint" />
          </mxGeometry>
        </mxCell>
        <mxCell id="zk_h0Scq-M_etuKPo7Ku-93" value="6.Return result" style="html=1;verticalAlign=bottom;endArrow=open;dashed=1;endSize=8;" parent="zk_h0Scq-M_etuKPo7Ku-89" edge="1">
          <mxGeometry relative="1" as="geometry">
            <mxPoint x="249.5" y="426" as="sourcePoint" />
            <mxPoint x="75" y="426" as="targetPoint" />
            <Array as="points">
              <mxPoint x="205.5" y="426" />
            </Array>
          </mxGeometry>
        </mxCell>
        <mxCell id="zk_h0Scq-M_etuKPo7Ku-94" value="Database" style="shape=umlLifeline;perimeter=lifelinePerimeter;container=1;collapsible=0;recursiveResize=0;rounded=0;shadow=0;strokeWidth=1;" parent="1" vertex="1">
          <mxGeometry x="905" y="1160" width="100" height="650" as="geometry" />
        </mxCell>
        <mxCell id="zk_h0Scq-M_etuKPo7Ku-95" value="" style="html=1;points=[];perimeter=orthogonalPerimeter;" parent="zk_h0Scq-M_etuKPo7Ku-94" vertex="1">
          <mxGeometry x="45" y="170" width="10" height="290" as="geometry" />
        </mxCell>
        <mxCell id="zk_h0Scq-M_etuKPo7Ku-96" value="1.Select &quot;Danh sách đề tài&quot;" style="html=1;verticalAlign=bottom;endArrow=block;entryX=0.043;entryY=0.034;entryDx=0;entryDy=0;entryPerimeter=0;" parent="1" source="zk_h0Scq-M_etuKPo7Ku-97" target="zk_h0Scq-M_etuKPo7Ku-82" edge="1">
          <mxGeometry x="-0.0305" y="8" width="80" relative="1" as="geometry">
            <mxPoint x="105" y="1250" as="sourcePoint" />
            <mxPoint x="225" y="1250" as="targetPoint" />
            <mxPoint as="offset" />
          </mxGeometry>
        </mxCell>
        <mxCell id="zk_h0Scq-M_etuKPo7Ku-97" value="" style="shape=umlLifeline;perimeter=lifelinePerimeter;whiteSpace=wrap;html=1;container=1;dropTarget=0;collapsible=0;recursiveResize=0;outlineConnect=0;portConstraint=eastwest;newEdgeStyle={&quot;curved&quot;:0,&quot;rounded&quot;:0};participant=umlActor;" parent="1" vertex="1">
          <mxGeometry x="35" y="1140" width="20" height="670" as="geometry" />
        </mxCell>
        <mxCell id="zk_h0Scq-M_etuKPo7Ku-98" value="Teacher" style="text;html=1;align=center;verticalAlign=middle;resizable=0;points=[];autosize=1;strokeColor=none;fillColor=none;" parent="1" vertex="1">
          <mxGeometry x="10" y="1180" width="70" height="30" as="geometry" />
        </mxCell>
        <mxCell id="zk_h0Scq-M_etuKPo7Ku-99" value="4.findProjectByTitleContaining()" style="html=1;verticalAlign=bottom;endArrow=block;" parent="1" target="zk_h0Scq-M_etuKPo7Ku-85" edge="1">
          <mxGeometry width="80" relative="1" as="geometry">
            <mxPoint x="240" y="1359.5" as="sourcePoint" />
            <mxPoint x="415.4000000000001" y="1360.29" as="targetPoint" />
          </mxGeometry>
        </mxCell>
        <mxCell id="zk_h0Scq-M_etuKPo7Ku-100" value="5.findProjectByTitleContaining()" style="html=1;verticalAlign=bottom;endArrow=block;exitX=1.236;exitY=0.183;exitDx=0;exitDy=0;exitPerimeter=0;entryX=-0.02;entryY=0.142;entryDx=0;entryDy=0;entryPerimeter=0;" parent="1" edge="1">
          <mxGeometry width="80" relative="1" as="geometry">
            <mxPoint x="427.3600000000001" y="1382.03" as="sourcePoint" />
            <mxPoint x="594.8000000000002" y="1382.38" as="targetPoint" />
          </mxGeometry>
        </mxCell>
        <mxCell id="zk_h0Scq-M_etuKPo7Ku-101" value="5.findProjectByTitleContaining()" style="html=1;verticalAlign=bottom;endArrow=block;exitX=1.18;exitY=0.189;exitDx=0;exitDy=0;exitPerimeter=0;" parent="1" edge="1">
          <mxGeometry width="80" relative="1" as="geometry">
            <mxPoint x="606.8000000000002" y="1403.71" as="sourcePoint" />
            <mxPoint x="780" y="1403.71" as="targetPoint" />
          </mxGeometry>
        </mxCell>
        <mxCell id="zk_h0Scq-M_etuKPo7Ku-102" value="10.Display Project List" style="html=1;verticalAlign=bottom;endArrow=open;dashed=1;endSize=8;exitX=-0.011;exitY=0.947;exitDx=0;exitDy=0;exitPerimeter=0;" parent="1" source="zk_h0Scq-M_etuKPo7Ku-82" target="zk_h0Scq-M_etuKPo7Ku-97" edge="1">
          <mxGeometry relative="1" as="geometry">
            <mxPoint x="225" y="1670" as="sourcePoint" />
            <mxPoint x="-43" y="1671" as="targetPoint" />
          </mxGeometry>
        </mxCell>
        <mxCell id="zk_h0Scq-M_etuKPo7Ku-103" value="9.Return result" style="html=1;verticalAlign=bottom;endArrow=open;dashed=1;endSize=8;exitX=0.06;exitY=0.935;exitDx=0;exitDy=0;exitPerimeter=0;" parent="1" edge="1">
          <mxGeometry relative="1" as="geometry">
            <mxPoint x="420.5999999999999" y="1687.75" as="sourcePoint" />
            <mxPoint x="240" y="1687.75" as="targetPoint" />
          </mxGeometry>
        </mxCell>
        <mxCell id="zk_h0Scq-M_etuKPo7Ku-104" value="2.Input &quot;Tìm kiếm đề tài&quot;" style="html=1;verticalAlign=bottom;endArrow=block;" parent="1" edge="1">
          <mxGeometry x="-0.0305" y="8" width="80" relative="1" as="geometry">
            <mxPoint x="44.5" y="1292.625" as="sourcePoint" />
            <mxPoint x="230" y="1293" as="targetPoint" />
            <mxPoint as="offset" />
          </mxGeometry>
        </mxCell>
        <mxCell id="zk_h0Scq-M_etuKPo7Ku-105" value="3. Click button &quot;Tìm kiếm&quot;" style="html=1;verticalAlign=bottom;endArrow=block;entryX=-0.1;entryY=0.156;entryDx=0;entryDy=0;entryPerimeter=0;" parent="1" edge="1">
          <mxGeometry x="-0.0305" y="8" width="80" relative="1" as="geometry">
            <mxPoint x="44.5" y="1336.1" as="sourcePoint" />
            <mxPoint x="229" y="1336.1" as="targetPoint" />
            <mxPoint as="offset" />
          </mxGeometry>
        </mxCell>
        <mxCell id="zk_h0Scq-M_etuKPo7Ku-106" value="6.1.Return not found message" style="html=1;verticalAlign=bottom;endArrow=open;dashed=1;endSize=8;exitX=-0.082;exitY=0.569;exitDx=0;exitDy=0;exitPerimeter=0;" parent="1" edge="1">
          <mxGeometry relative="1" as="geometry">
            <mxPoint x="595" y="1469" as="sourcePoint" />
            <mxPoint x="430" y="1469" as="targetPoint" />
          </mxGeometry>
        </mxCell>
        <mxCell id="zk_h0Scq-M_etuKPo7Ku-107" value="6.1.Return not found message" style="html=1;verticalAlign=bottom;endArrow=open;dashed=1;endSize=8;exitX=0.1;exitY=0.459;exitDx=0;exitDy=0;exitPerimeter=0;" parent="1" edge="1">
          <mxGeometry relative="1" as="geometry">
            <mxPoint x="421" y="1495.19" as="sourcePoint" />
            <mxPoint x="239" y="1495" as="targetPoint" />
          </mxGeometry>
        </mxCell>
        <mxCell id="zk_h0Scq-M_etuKPo7Ku-108" value="[Title not found]" style="text;html=1;strokeColor=none;fillColor=none;align=center;verticalAlign=middle;whiteSpace=wrap;rounded=0;fontSize=16;" parent="1" vertex="1">
          <mxGeometry x="50" y="1440" width="180" height="30" as="geometry" />
        </mxCell>
        <mxCell id="zk_h0Scq-M_etuKPo7Ku-109" value="alt find Project by Title Containing" style="shape=umlFrame;whiteSpace=wrap;html=1;pointerEvents=0;fontSize=16;width=160;height=40;" parent="1" vertex="1">
          <mxGeometry x="-90" y="1430" width="1120" height="350" as="geometry" />
        </mxCell>
        <mxCell id="zk_h0Scq-M_etuKPo7Ku-110" value="" style="endArrow=none;dashed=1;html=1;dashPattern=1 3;strokeWidth=2;rounded=0;fontSize=12;startSize=8;endSize=8;curved=1;" parent="1" edge="1">
          <mxGeometry width="50" height="50" relative="1" as="geometry">
            <mxPoint x="-160" y="1550" as="sourcePoint" />
            <mxPoint x="1080" y="1550" as="targetPoint" />
          </mxGeometry>
        </mxCell>
        <mxCell id="zk_h0Scq-M_etuKPo7Ku-111" value="alt find All Project" style="shape=umlFrame;whiteSpace=wrap;html=1;pointerEvents=0;fontSize=16;width=160;height=40;" parent="1" vertex="1">
          <mxGeometry x="-100" y="320" width="1120" height="350" as="geometry" />
        </mxCell>
        <mxCell id="zk_h0Scq-M_etuKPo7Ku-112" value="4.1.Return not found message" style="html=1;verticalAlign=bottom;endArrow=open;dashed=1;endSize=8;" parent="1" source="zk_h0Scq-M_etuKPo7Ku-65" edge="1">
          <mxGeometry relative="1" as="geometry">
            <mxPoint x="533" y="370" as="sourcePoint" />
            <mxPoint x="368" y="370" as="targetPoint" />
          </mxGeometry>
        </mxCell>
        <mxCell id="zk_h0Scq-M_etuKPo7Ku-113" value="4.1.Return not found message" style="html=1;verticalAlign=bottom;endArrow=open;dashed=1;endSize=8;" parent="1" edge="1">
          <mxGeometry x="0.0191" y="1" relative="1" as="geometry">
            <mxPoint x="360" y="389" as="sourcePoint" />
            <mxPoint x="203" y="389" as="targetPoint" />
            <mxPoint as="offset" />
          </mxGeometry>
        </mxCell>
        <mxCell id="zk_h0Scq-M_etuKPo7Ku-114" value="" style="endArrow=none;dashed=1;html=1;dashPattern=1 3;strokeWidth=2;rounded=0;fontSize=12;startSize=8;endSize=8;curved=1;" parent="1" edge="1">
          <mxGeometry width="50" height="50" relative="1" as="geometry">
            <mxPoint x="-150" y="470" as="sourcePoint" />
            <mxPoint x="1090" y="470" as="targetPoint" />
          </mxGeometry>
        </mxCell>
        <mxCell id="zk_h0Scq-M_etuKPo7Ku-115" value="[list not found]" style="text;html=1;strokeColor=none;fillColor=none;align=center;verticalAlign=middle;whiteSpace=wrap;rounded=0;fontSize=16;" parent="1" vertex="1">
          <mxGeometry x="-80" y="380" width="150" height="30" as="geometry" />
        </mxCell>
        <mxCell id="zk_h0Scq-M_etuKPo7Ku-116" value="[list found]" style="text;html=1;strokeColor=none;fillColor=none;align=center;verticalAlign=middle;whiteSpace=wrap;rounded=0;fontSize=16;" parent="1" vertex="1">
          <mxGeometry x="-90" y="500" width="150" height="30" as="geometry" />
        </mxCell>
      </root>
    </mxGraphModel>
  </diagram>
  <diagram name="instruction_information" id="b061BqFb5DCLHfAPfjng">
    <mxGraphModel dx="2559" dy="780" grid="1" gridSize="10" guides="1" tooltips="1" connect="1" arrows="1" fold="1" page="1" pageScale="1" pageWidth="850" pageHeight="1100" math="0" shadow="0">
      <root>
        <mxCell id="Ybh-yLgxvXat642E-mGX-0" />
        <mxCell id="Ybh-yLgxvXat642E-mGX-1" parent="Ybh-yLgxvXat642E-mGX-0" />
        <mxCell id="Ybh-yLgxvXat642E-mGX-2" value="View" style="shape=umlLifeline;perimeter=lifelinePerimeter;container=1;collapsible=0;recursiveResize=0;rounded=0;shadow=0;strokeWidth=1;" parent="Ybh-yLgxvXat642E-mGX-1" vertex="1">
          <mxGeometry x="150" y="100" width="100" height="660" as="geometry" />
        </mxCell>
        <mxCell id="Ybh-yLgxvXat642E-mGX-3" value="" style="html=1;points=[];perimeter=orthogonalPerimeter;" parent="Ybh-yLgxvXat642E-mGX-2" vertex="1">
          <mxGeometry x="45" y="75" width="10" height="475" as="geometry" />
        </mxCell>
        <mxCell id="Ybh-yLgxvXat642E-mGX-4" value=":NotificationController" style="shape=umlLifeline;perimeter=lifelinePerimeter;container=1;collapsible=0;recursiveResize=0;rounded=0;shadow=0;strokeWidth=1;" parent="Ybh-yLgxvXat642E-mGX-1" vertex="1">
          <mxGeometry x="320" y="100" width="160" height="660" as="geometry" />
        </mxCell>
        <mxCell id="Ybh-yLgxvXat642E-mGX-5" value="" style="html=1;points=[];perimeter=orthogonalPerimeter;" parent="Ybh-yLgxvXat642E-mGX-4" vertex="1">
          <mxGeometry x="78" y="100" width="10" height="410" as="geometry" />
        </mxCell>
        <mxCell id="Ybh-yLgxvXat642E-mGX-6" value="8.Return result" style="html=1;verticalAlign=bottom;endArrow=open;dashed=1;endSize=8;exitX=-0.082;exitY=0.569;exitDx=0;exitDy=0;exitPerimeter=0;" parent="Ybh-yLgxvXat642E-mGX-4" edge="1">
          <mxGeometry relative="1" as="geometry">
            <mxPoint x="261" y="450" as="sourcePoint" />
            <mxPoint x="88" y="450" as="targetPoint" />
          </mxGeometry>
        </mxCell>
        <mxCell id="Ybh-yLgxvXat642E-mGX-7" value=":NotificationService" style="shape=umlLifeline;perimeter=lifelinePerimeter;container=1;collapsible=0;recursiveResize=0;rounded=0;shadow=0;strokeWidth=1;" parent="Ybh-yLgxvXat642E-mGX-1" vertex="1">
          <mxGeometry x="510" y="100" width="150" height="660" as="geometry" />
        </mxCell>
        <mxCell id="Ybh-yLgxvXat642E-mGX-8" value="" style="html=1;points=[];perimeter=orthogonalPerimeter;" parent="Ybh-yLgxvXat642E-mGX-7" vertex="1">
          <mxGeometry x="70" y="120" width="10" height="390" as="geometry" />
        </mxCell>
        <mxCell id="Ybh-yLgxvXat642E-mGX-9" value=":NotificationRepository" style="shape=umlLifeline;perimeter=lifelinePerimeter;container=1;collapsible=0;recursiveResize=0;rounded=0;shadow=0;strokeWidth=1;" parent="Ybh-yLgxvXat642E-mGX-1" vertex="1">
          <mxGeometry x="700" y="100" width="160" height="660" as="geometry" />
        </mxCell>
        <mxCell id="Ybh-yLgxvXat642E-mGX-10" value="" style="html=1;points=[];perimeter=orthogonalPerimeter;" parent="Ybh-yLgxvXat642E-mGX-9" vertex="1">
          <mxGeometry x="75" y="150" width="10" height="300" as="geometry" />
        </mxCell>
        <mxCell id="Ybh-yLgxvXat642E-mGX-13" value="6.Return result" style="html=1;verticalAlign=bottom;endArrow=open;dashed=1;endSize=8;" parent="Ybh-yLgxvXat642E-mGX-9" edge="1">
          <mxGeometry relative="1" as="geometry">
            <mxPoint x="257.5" y="390" as="sourcePoint" />
            <mxPoint x="83" y="390" as="targetPoint" />
            <Array as="points">
              <mxPoint x="213.5" y="390" />
            </Array>
          </mxGeometry>
        </mxCell>
        <mxCell id="Ybh-yLgxvXat642E-mGX-14" value="Database" style="shape=umlLifeline;perimeter=lifelinePerimeter;container=1;collapsible=0;recursiveResize=0;rounded=0;shadow=0;strokeWidth=1;" parent="Ybh-yLgxvXat642E-mGX-1" vertex="1">
          <mxGeometry x="910" y="90" width="100" height="650" as="geometry" />
        </mxCell>
        <mxCell id="Ybh-yLgxvXat642E-mGX-15" value="" style="html=1;points=[];perimeter=orthogonalPerimeter;" parent="Ybh-yLgxvXat642E-mGX-14" vertex="1">
          <mxGeometry x="45" y="190" width="10" height="230" as="geometry" />
        </mxCell>
        <mxCell id="Ybh-yLgxvXat642E-mGX-16" value="1.Select &quot;Thông tin hướng dẫn&quot;" style="html=1;verticalAlign=bottom;endArrow=block;entryX=0.043;entryY=0.034;entryDx=0;entryDy=0;entryPerimeter=0;" parent="Ybh-yLgxvXat642E-mGX-1" source="Ybh-yLgxvXat642E-mGX-17" target="Ybh-yLgxvXat642E-mGX-3" edge="1">
          <mxGeometry x="-0.0305" y="8" width="80" relative="1" as="geometry">
            <mxPoint x="70" y="190" as="sourcePoint" />
            <mxPoint x="190" y="190" as="targetPoint" />
            <mxPoint as="offset" />
          </mxGeometry>
        </mxCell>
        <mxCell id="Ybh-yLgxvXat642E-mGX-17" value="" style="shape=umlLifeline;perimeter=lifelinePerimeter;whiteSpace=wrap;html=1;container=1;dropTarget=0;collapsible=0;recursiveResize=0;outlineConnect=0;portConstraint=eastwest;newEdgeStyle={&quot;curved&quot;:0,&quot;rounded&quot;:0};participant=umlActor;" parent="Ybh-yLgxvXat642E-mGX-1" vertex="1">
          <mxGeometry y="80" width="20" height="670" as="geometry" />
        </mxCell>
        <mxCell id="Ybh-yLgxvXat642E-mGX-18" value="Student" style="text;html=1;align=center;verticalAlign=middle;resizable=0;points=[];autosize=1;strokeColor=none;fillColor=none;" parent="Ybh-yLgxvXat642E-mGX-1" vertex="1">
          <mxGeometry x="-20" y="120" width="60" height="30" as="geometry" />
        </mxCell>
        <mxCell id="Ybh-yLgxvXat642E-mGX-19" value="2.&amp;nbsp;findAllNotificationByAccountId()" style="html=1;verticalAlign=bottom;endArrow=block;entryX=0.18;entryY=0.098;entryDx=0;entryDy=0;entryPerimeter=0;" parent="Ybh-yLgxvXat642E-mGX-1" source="Ybh-yLgxvXat642E-mGX-3" target="Ybh-yLgxvXat642E-mGX-5" edge="1">
          <mxGeometry width="80" relative="1" as="geometry">
            <mxPoint x="220" y="312" as="sourcePoint" />
            <mxPoint x="370" y="356" as="targetPoint" />
          </mxGeometry>
        </mxCell>
        <mxCell id="Ybh-yLgxvXat642E-mGX-20" value="3.findAllNotificationByAccountId()" style="html=1;verticalAlign=bottom;endArrow=block;exitX=1.236;exitY=0.183;exitDx=0;exitDy=0;exitPerimeter=0;entryX=-0.02;entryY=0.142;entryDx=0;entryDy=0;entryPerimeter=0;" parent="Ybh-yLgxvXat642E-mGX-1" source="Ybh-yLgxvXat642E-mGX-5" target="Ybh-yLgxvXat642E-mGX-8" edge="1">
          <mxGeometry width="80" relative="1" as="geometry">
            <mxPoint x="468" y="340" as="sourcePoint" />
            <mxPoint x="578" y="340" as="targetPoint" />
          </mxGeometry>
        </mxCell>
        <mxCell id="Ybh-yLgxvXat642E-mGX-21" value="4.findAllNotificationByAccountId()" style="html=1;verticalAlign=bottom;endArrow=block;exitX=1.18;exitY=0.189;exitDx=0;exitDy=0;exitPerimeter=0;" parent="Ybh-yLgxvXat642E-mGX-1" source="Ybh-yLgxvXat642E-mGX-8" target="Ybh-yLgxvXat642E-mGX-10" edge="1">
          <mxGeometry width="80" relative="1" as="geometry">
            <mxPoint x="608" y="380" as="sourcePoint" />
            <mxPoint x="768" y="380" as="targetPoint" />
          </mxGeometry>
        </mxCell>
        <mxCell id="Ybh-yLgxvXat642E-mGX-22" value="10.Display Notification List" style="html=1;verticalAlign=bottom;endArrow=open;dashed=1;endSize=8;exitX=-0.011;exitY=0.947;exitDx=0;exitDy=0;exitPerimeter=0;" parent="Ybh-yLgxvXat642E-mGX-1" source="Ybh-yLgxvXat642E-mGX-3" target="Ybh-yLgxvXat642E-mGX-17" edge="1">
          <mxGeometry relative="1" as="geometry">
            <mxPoint x="190" y="610" as="sourcePoint" />
            <mxPoint x="-78" y="611" as="targetPoint" />
          </mxGeometry>
        </mxCell>
        <mxCell id="Ybh-yLgxvXat642E-mGX-23" value="9.Return result" style="html=1;verticalAlign=bottom;endArrow=open;dashed=1;endSize=8;entryX=0.525;entryY=0.732;entryDx=0;entryDy=0;entryPerimeter=0;exitX=0.06;exitY=0.935;exitDx=0;exitDy=0;exitPerimeter=0;" parent="Ybh-yLgxvXat642E-mGX-1" source="Ybh-yLgxvXat642E-mGX-5" target="Ybh-yLgxvXat642E-mGX-2" edge="1">
          <mxGeometry relative="1" as="geometry">
            <mxPoint x="340" y="583" as="sourcePoint" />
            <mxPoint x="210" y="583" as="targetPoint" />
          </mxGeometry>
        </mxCell>
        <mxCell id="Ybh-yLgxvXat642E-mGX-54" value="alt find All Notification By Account Id" style="shape=umlFrame;whiteSpace=wrap;html=1;pointerEvents=0;fontSize=16;width=220;height=40;" parent="Ybh-yLgxvXat642E-mGX-1" vertex="1">
          <mxGeometry x="-100" y="320" width="1120" height="350" as="geometry" />
        </mxCell>
        <mxCell id="Ybh-yLgxvXat642E-mGX-55" value="4.1.Return not found message" style="html=1;verticalAlign=bottom;endArrow=open;dashed=1;endSize=8;" parent="Ybh-yLgxvXat642E-mGX-1" source="Ybh-yLgxvXat642E-mGX-8" edge="1">
          <mxGeometry relative="1" as="geometry">
            <mxPoint x="573" y="370" as="sourcePoint" />
            <mxPoint x="408" y="370" as="targetPoint" />
          </mxGeometry>
        </mxCell>
        <mxCell id="Ybh-yLgxvXat642E-mGX-56" value="4.1.Return not found message" style="html=1;verticalAlign=bottom;endArrow=open;dashed=1;endSize=8;" parent="Ybh-yLgxvXat642E-mGX-1" source="Ybh-yLgxvXat642E-mGX-5" edge="1">
          <mxGeometry x="0.0191" y="1" relative="1" as="geometry">
            <mxPoint x="360" y="389" as="sourcePoint" />
            <mxPoint x="203" y="389" as="targetPoint" />
            <mxPoint as="offset" />
          </mxGeometry>
        </mxCell>
        <mxCell id="Ybh-yLgxvXat642E-mGX-57" value="" style="endArrow=none;dashed=1;html=1;dashPattern=1 3;strokeWidth=2;rounded=0;fontSize=12;startSize=8;endSize=8;curved=1;" parent="Ybh-yLgxvXat642E-mGX-1" edge="1">
          <mxGeometry width="50" height="50" relative="1" as="geometry">
            <mxPoint x="-150" y="470" as="sourcePoint" />
            <mxPoint x="1090" y="470" as="targetPoint" />
          </mxGeometry>
        </mxCell>
        <mxCell id="Ybh-yLgxvXat642E-mGX-58" value="[list not found]" style="text;html=1;strokeColor=none;fillColor=none;align=center;verticalAlign=middle;whiteSpace=wrap;rounded=0;fontSize=16;" parent="Ybh-yLgxvXat642E-mGX-1" vertex="1">
          <mxGeometry x="-80" y="380" width="150" height="30" as="geometry" />
        </mxCell>
        <mxCell id="Ybh-yLgxvXat642E-mGX-59" value="[list found]" style="text;html=1;strokeColor=none;fillColor=none;align=center;verticalAlign=middle;whiteSpace=wrap;rounded=0;fontSize=16;" parent="Ybh-yLgxvXat642E-mGX-1" vertex="1">
          <mxGeometry x="-90" y="500" width="150" height="30" as="geometry" />
        </mxCell>
        <mxCell id="Ybh-yLgxvXat642E-mGX-11" value="5.findAllNotificationByAccountId()" style="html=1;verticalAlign=bottom;endArrow=block;" parent="Ybh-yLgxvXat642E-mGX-1" edge="1">
          <mxGeometry width="80" relative="1" as="geometry">
            <mxPoint x="785" y="311" as="sourcePoint" />
            <mxPoint x="955" y="311" as="targetPoint" />
          </mxGeometry>
        </mxCell>
        <mxCell id="Ybh-yLgxvXat642E-mGX-12" value="7.Return result" style="html=1;verticalAlign=bottom;endArrow=open;dashed=1;endSize=8;" parent="Ybh-yLgxvXat642E-mGX-1" edge="1">
          <mxGeometry relative="1" as="geometry">
            <mxPoint x="775" y="513" as="sourcePoint" />
            <mxPoint x="590" y="513" as="targetPoint" />
          </mxGeometry>
        </mxCell>
      </root>
    </mxGraphModel>
  </diagram>
</mxfile>
